<?xml version="1.0" encoding="UTF-8"?>
<svg version="1.1" xmlns="http://www.w3.org/2000/svg" width="256" height="256">
<path d="M0 0 C10.72794129 -0.93027317 19.27985207 4.05224072 28.54101562 8.83959961 C31.35194845 10.28741987 34.18490468 11.68221794 37.02441406 13.07299805 C46.88794186 18.00783168 54.51229341 22.39943473 61.11035156 31.41674805 C62.449692 32.93000102 63.80195811 34.43201962 65.17285156 35.91674805 C68.11035156 39.16731494 68.11035156 39.16731494 68.11035156 41.41674805 C70.75035156 41.08674805 73.39035156 40.75674805 76.11035156 40.41674805 C77.26026638 43.99426082 77.26026638 43.99426082 76.42285156 46.35424805 C75.86956114 48.5421711 75.86956114 48.5421711 77.41894531 50.6394043 C81.34433063 54.69012848 85.97867501 57.14832358 90.86035156 59.91674805 C93.7288095 61.56956271 96.59562368 63.22450746 99.45410156 64.89453125 C101.14096525 65.86122198 102.84808215 66.79400327 104.57910156 67.67919922 C106.65315073 68.79643692 108.39900229 69.7977293 110.11035156 71.41674805 C110.89160156 74.9675293 110.89160156 74.9675293 110.61035156 78.72924805 C110.53816406 79.98350586 110.46597656 81.23776367 110.39160156 82.5300293 C110.29878906 83.48264648 110.20597656 84.43526367 110.11035156 85.41674805 C111.43035156 85.74674805 112.75035156 86.07674805 114.11035156 86.41674805 C114.48535156 89.66674805 114.48535156 89.66674805 114.11035156 93.41674805 C111.11035156 95.85424805 111.11035156 95.85424805 108.11035156 97.41674805 C110.42035156 98.73674805 112.73035156 100.05674805 115.11035156 101.41674805 C112.44370254 104.56071819 109.0587946 106.17120555 105.43920898 107.98608398 C104.76565872 108.32950333 104.09210846 108.67292267 103.39814758 109.02674866 C101.17398664 110.15815096 98.94532899 111.28029925 96.71582031 112.40112305 C95.16503309 113.18387741 93.61427773 113.96669488 92.06355286 114.74957275 C88.8134284 116.38812451 85.56065632 118.02128975 82.30639648 119.65161133 C78.13926009 121.74061886 73.98268388 123.84978094 69.82830334 125.96401596 C66.62948913 127.58761461 63.42357718 129.19678458 60.21553993 130.80207062 C58.67992323 131.57349358 57.14695424 132.35021095 55.61675072 133.13231659 C53.47500643 134.22516617 51.32405176 135.29730403 49.16967773 136.36499023 C48.54141083 136.69114822 47.91314392 137.01730621 47.26583862 137.35334778 C43.02737934 139.41777301 40.63776493 139.4803677 36.11035156 138.41674805 C33.27933693 137.24733639 33.27933693 137.24733639 30.30166626 135.75291443 C28.59804932 134.90522995 28.59804932 134.90522995 26.86001587 134.04042053 C25.61607474 133.41137298 24.37221134 132.78217169 23.12841797 132.15283203 C21.80769657 131.49190681 20.48662185 130.83168721 19.16522217 130.17211914 C15.58769369 128.38392783 12.01517837 126.58592557 8.44348955 124.78610492 C4.70676464 122.90522511 0.96549525 121.03342911 -2.77529907 119.16065979 C-9.854437 115.61487901 -16.92945734 112.06096206 -24.00303042 108.50409514 C-32.05788993 104.45429709 -40.11730408 100.41360353 -48.17711139 96.37366378 C-64.75304105 88.06480373 -81.32322388 79.74454213 -97.88964844 71.41674805 C-97.88964844 70.42674805 -97.88964844 69.43674805 -97.88964844 68.41674805 C-96.890625 68.00424805 -95.89160156 67.59174805 -94.86230469 67.16674805 C-87.74012837 64.42153881 -87.74012837 64.42153881 -82.73730469 59.1706543 C-82.41586697 56.75037332 -82.41586697 56.75037332 -82.88964844 53.41674805 C-84.28183594 53.23112305 -84.28183594 53.23112305 -85.70214844 53.04174805 C-88.88964844 52.41674805 -88.88964844 52.41674805 -91.88964844 50.41674805 C-92.23022461 47.89477539 -92.23022461 47.89477539 -92.18261719 44.75268555 C-92.17294922 43.63120117 -92.16328125 42.5097168 -92.15332031 41.35424805 C-92.12818359 40.17862305 -92.10304688 39.00299805 -92.07714844 37.79174805 C-92.06361328 36.60838867 -92.05007812 35.4250293 -92.03613281 34.20581055 C-92.0006876 31.27567266 -91.95127612 28.34643346 -91.88964844 25.41674805 C-85.02345393 21.74688547 -85.02345393 21.74688547 -81.58813477 19.9777832 C-76.45162109 17.33062694 -71.42546588 14.57243827 -66.44824219 11.63549805 C-49.72502367 2.10191446 -37.43876083 -0.12961543 -18.19042969 1.27368164 C-15.00165425 1.41189336 -12.00171559 1.26969567 -8.82714844 0.9675293 C-7.3532666 0.83834106 -7.3532666 0.83834106 -5.84960938 0.70654297 C-3.89491374 0.51516853 -1.94392902 0.28035543 0 0 Z " fill="#BF281D" transform="translate(119.8896484375,42.583251953125)"/>
<path d="M0 0 C10.38386565 4.77437222 15.8754383 11.82477283 20.57421875 22.12109375 C20.64503662 22.76304688 20.71585449 23.405 20.78881836 24.06640625 C22.02029811 27.28808284 24.30262201 27.98025825 27.3046875 29.546875 C27.89155838 29.85755417 28.47842926 30.16823334 29.08308411 30.48832703 C30.96956136 31.48288253 32.8652685 32.45821441 34.76171875 33.43359375 C35.9882656 34.0775673 37.21418421 34.72273891 38.43945312 35.36914062 C46.75704508 39.73986429 55.15736313 43.94540849 63.57421875 48.12109375 C63.86635254 47.16904053 64.15848633 46.2169873 64.45947266 45.23608398 C65.68532249 41.81063107 66.41572832 40.81436389 69.57421875 39.12109375 C75.06601406 37.87821376 79.80500959 38.8299582 84.69921875 41.49609375 C92.08132775 46.41362463 97.90936459 53.62687111 100.57421875 62.12109375 C100.76171875 65.05859375 100.76171875 65.05859375 100.57421875 67.12109375 C101.35796875 67.34796875 102.14171875 67.57484375 102.94921875 67.80859375 C107.697235 69.52770308 112.09524427 71.80194096 116.57421875 74.12109375 C116.57421875 74.78109375 116.57421875 75.44109375 116.57421875 76.12109375 C122.55048663 77.92252691 126.01651732 75.96495384 131.26953125 73.2734375 C132.09822723 72.86452774 132.92692322 72.45561798 133.7807312 72.03431702 C136.42785941 70.72381179 139.06340706 69.39168951 141.69921875 68.05859375 C143.44849799 67.18800339 145.19849214 66.31884795 146.94921875 65.45117188 C156.1715569 60.89862076 156.1715569 60.89862076 165.28027344 56.12548828 C166.32344727 55.56845215 167.36662109 55.01141602 168.44140625 54.4375 C169.30620605 53.95869385 170.17100586 53.4798877 171.06201172 52.98657227 C174.28413429 51.87652129 176.30570809 52.27228582 179.57421875 53.12109375 C182.44921875 54.68359375 182.44921875 54.68359375 184.57421875 56.12109375 C181.90756972 59.2650639 178.52266179 60.87555126 174.90307617 62.69042969 C174.22952591 63.03384903 173.55597565 63.37726837 172.86201477 63.73109436 C170.63785383 64.86249666 168.40919618 65.98464495 166.1796875 67.10546875 C164.62890028 67.88822311 163.07814492 68.67104058 161.52742004 69.45391846 C158.27729558 71.09247022 155.02452351 72.72563545 151.77026367 74.35595703 C147.60312728 76.44496456 143.44655107 78.55412665 139.29217052 80.66836166 C136.09335632 82.29196031 132.88744437 83.90113029 129.67940712 85.50641632 C128.14379041 86.27783929 126.61082143 87.05455665 125.0806179 87.83666229 C122.93887362 88.92951187 120.78791895 90.00164973 118.63354492 91.06933594 C118.00527802 91.39549393 117.37701111 91.72165192 116.72970581 92.05769348 C112.49124653 94.12211872 110.10163212 94.18471341 105.57421875 93.12109375 C102.74320412 91.95168209 102.74320412 91.95168209 99.76553345 90.45726013 C98.62978882 89.89213715 97.49404419 89.32701416 96.32388306 88.74476624 C95.07994192 88.11571869 93.83607853 87.48651739 92.59228516 86.85717773 C91.27156375 86.19625251 89.95048904 85.53603292 88.62908936 84.87646484 C85.05156088 83.08827353 81.47904556 81.29027127 77.90735674 79.49045062 C74.17063183 77.60957081 70.42936244 75.73777482 66.68856812 73.86500549 C59.60943018 70.31922472 52.53440985 66.76530776 45.46083677 63.20844084 C37.40597725 59.15864279 29.34656311 55.11794924 21.2867558 51.07800949 C4.71082614 42.76914943 -11.85935669 34.44888783 -28.42578125 26.12109375 C-28.42578125 25.13109375 -28.42578125 24.14109375 -28.42578125 23.12109375 C-27.42675781 22.70859375 -26.42773438 22.29609375 -25.3984375 21.87109375 C-18.27626119 19.12588451 -18.27626119 19.12588451 -13.2734375 13.875 C-12.95199979 11.45471902 -12.95199979 11.45471902 -13.42578125 8.12109375 C-14.41578125 7.79109375 -15.40578125 7.46109375 -16.42578125 7.12109375 C-15.50448262 4.02218017 -14.75420056 2.39321261 -12.23828125 0.30859375 C-7.8345041 -1.55077882 -4.53228934 -1.64213382 0 0 Z " fill="#242424" transform="translate(50.42578125,87.87890625)"/>
<path d="M0 0 C11.77999197 -1.06266154 21.05117703 5.03488252 31.13891602 10.38818359 C33.00550827 11.35413739 34.87333935 12.31770123 36.74243164 13.27880859 C41.2851898 15.62126677 45.80992076 17.99550699 50.32641602 20.38818359 C50.32641602 21.04818359 50.32641602 21.70818359 50.32641602 22.38818359 C43.32401925 25.96547123 36.31226578 29.52387547 29.29370117 33.06933594 C26.9066132 34.27626774 24.52337892 35.49004729 22.14135742 36.70703125 C18.71648676 38.455871 15.28409209 40.18907755 11.84985352 41.91943359 C10.78713226 42.46627808 9.72441101 43.01312256 8.62948608 43.57653809 C7.62890167 44.07705688 6.62831726 44.57757568 5.59741211 45.09326172 C4.72249115 45.53738403 3.84757019 45.98150635 2.94613647 46.43908691 C-1.31521964 47.98293062 -4.5600638 47.82456193 -8.75048828 46.18237305 C-9.82210205 45.62767334 -10.89371582 45.07297363 -11.99780273 44.50146484 C-12.87816948 44.05313545 -12.87816948 44.05313545 -13.77632141 43.5957489 C-15.64394317 42.64197319 -17.50260002 41.67212538 -19.36108398 40.70068359 C-34.64273794 31.77839685 -34.64273794 31.77839685 -51.36108398 27.57568359 C-52.37557617 27.52798828 -53.39006836 27.48029297 -54.43530273 27.43115234 C-55.17393555 27.41697266 -55.91256836 27.40279297 -56.67358398 27.38818359 C-56.34358398 26.72818359 -56.01358398 26.06818359 -55.67358398 25.38818359 C-53.82313477 25.26830078 -53.82313477 25.26830078 -51.93530273 25.14599609 C-45.13018481 24.52478201 -39.50742168 21.30259742 -33.48608398 18.26318359 C-32.28314758 17.6679844 -31.07961203 17.07399462 -29.87548828 16.48120117 C-26.46829187 14.79632383 -23.07016771 13.09432822 -19.67358398 11.38818359 C-18.04912108 10.58111206 -16.42420411 9.77495296 -14.79858398 8.97021484 C-11.74935419 7.45763102 -8.70787925 5.93057028 -5.67358398 4.38818359 C-8.31358398 4.05818359 -10.95358398 3.72818359 -13.67358398 3.38818359 C-13.34358398 2.72818359 -13.01358398 2.06818359 -12.67358398 1.38818359 C-10.36215387 0.86465455 -8.10976131 0.7444223 -5.74462891 0.60302734 C-2.73217982 0.4304844 -2.73217982 0.4304844 0 0 Z " fill="#CB291F" transform="translate(119.673583984375,42.61181640625)"/>
<path d="M0 0 C1.42984639 0.85137733 2.86286129 1.69748671 4.30078125 2.53515625 C5.64095586 3.37292724 6.97824495 4.21533315 8.3125 5.0625 C9.32666992 5.69381836 9.32666992 5.69381836 10.36132812 6.33789062 C14.10559408 8.69403847 17.56348205 11.20286857 21 14 C12.17633779 18.56293773 3.34761901 23.11584263 -5.48973083 27.65222168 C-8.88280677 29.39464503 -12.27430818 31.13974151 -15.65771484 32.90087891 C-18.70417887 34.48579944 -21.75723038 36.05714338 -24.8125 37.625 C-26.1420874 38.32459839 -26.1420874 38.32459839 -27.49853516 39.03833008 C-28.71549072 39.65744263 -28.71549072 39.65744263 -29.95703125 40.2890625 C-30.64772705 40.64693848 -31.33842285 41.00481445 -32.05004883 41.37353516 C-34.51816792 42.16647288 -35.59760222 41.94706839 -38 41 C-40.10302734 39.66479492 -40.10302734 39.66479492 -42.3359375 37.98046875 C-43.15320313 37.37009766 -43.97046875 36.75972656 -44.8125 36.13085938 C-45.658125 35.48955078 -46.50375 34.84824219 -47.375 34.1875 C-49.04855505 32.92975901 -50.72301376 31.6732194 -52.3984375 30.41796875 C-53.18702148 29.82677246 -53.97560547 29.23557617 -54.78808594 28.62646484 C-57.46970772 26.65461448 -60.20529276 24.80700126 -63 23 C-60.67182724 20.42277817 -58.28712501 18.91097777 -55.22827148 17.28515625 C-54.2597374 16.76872559 -53.29120331 16.25229492 -52.2933197 15.72021484 C-47.85778248 13.40232955 -43.41516985 11.09916625 -38.96069336 8.81787109 C-36.61590144 7.60802281 -34.27949454 6.38178065 -31.9519043 5.13916016 C-28.58952605 3.34541533 -25.20379621 1.60563809 -21.80859375 -0.125 C-20.7759288 -0.68823975 -19.74326385 -1.25147949 -18.67930603 -1.83178711 C-10.86329192 -5.70755306 -7.07155428 -4.87933209 0 0 Z " fill="#CB281E" transform="translate(209,101)"/>
<path d="M0 0 C3.56801417 2.78607436 6.38887738 5.49727532 9.1875 9.0625 C13.89373566 14.94133309 18.88405477 20.4781969 24 26 C15.28363199 33.02604431 0.31107602 38 -11 38 C-11 38.66 -11 39.32 -11 40 C-7.7 39.34 -4.4 38.68 -1 38 C-3.21415466 40.21415466 -4.2784431 40.51852775 -7.24609375 41.2890625 C-8.08333984 41.50820312 -8.92058594 41.72734375 -9.78320312 41.953125 C-11.09708008 42.28570312 -11.09708008 42.28570312 -12.4375 42.625 C-13.30955078 42.85445312 -14.18160156 43.08390625 -15.08007812 43.3203125 C-21.58386812 45 -21.58386812 45 -25 45 C-25 45.66 -25 46.32 -25 47 C-24.31292969 46.77183594 -23.62585938 46.54367188 -22.91796875 46.30859375 C-22.01691406 46.02113281 -21.11585938 45.73367187 -20.1875 45.4375 C-19.29417969 45.14746094 -18.40085938 44.85742188 -17.48046875 44.55859375 C-15 44 -15 44 -12 45 C-13.90607285 46.06092734 -15.82532746 47.09820101 -17.75 48.125 C-18.81734375 48.70507812 -19.8846875 49.28515625 -20.984375 49.8828125 C-24 51 -24 51 -26.12890625 50.45703125 C-34.57258447 43.88189143 -42.0882294 33.86765591 -48 25 C-32.46170744 15.7996952 -16.17864927 7.99365395 0 0 Z " fill="#1B4F68" transform="translate(170,67)"/>
<path d="M0 0 C0 0.33 0 0.66 0 1 C2.97 1.33 5.94 1.66 9 2 C5.65882772 4.71936602 2.03650898 6.61594765 -1.8125 8.5 C-2.49320557 8.83459229 -3.17391113 9.16918457 -3.87524414 9.51391602 C-5.39732432 10.26007989 -6.92041562 11.00418358 -8.44433594 11.74658203 C-11.2554199 13.12526994 -14.05296782 14.52973992 -16.8515625 15.93359375 C-18.87977505 16.93577318 -20.90841864 17.93708077 -22.9375 18.9375 C-24.3747644 19.66453125 -24.3747644 19.66453125 -25.84106445 20.40625 C-31.74613219 23.28622051 -36.47034908 24.47947283 -43 25 C-43.33 25.66 -43.66 26.32 -44 27 C-47.62402065 27.69718002 -51.31882555 27.80050409 -55 28 C-55.82371094 28.05414063 -56.64742187 28.10828125 -57.49609375 28.1640625 C-64.61332706 28.42117109 -71.14788025 26.80431993 -78 25 C-78 25.66 -78 26.32 -78 27 C-77.01 27.33 -76.02 27.66 -75 28 C-75 30.31 -75 32.62 -75 35 C-75.99 34.67 -76.98 34.34 -78 34 C-78 35.98 -78 37.96 -78 40 C-78.33 40 -78.66 40 -79 40 C-79 34.72 -79 29.44 -79 24 C-72.09543326 20.30962812 -72.09543326 20.30962812 -68.6940918 18.56103516 C-63.57279988 15.92502892 -58.57508385 13.17169185 -53.62890625 10.21875 C-35.28676337 -0.32718282 -20.92866612 -1.86497123 0 0 Z " fill="#CA2A20" transform="translate(107,44)"/>
<path d="M0 0 C8.14418997 3.74459721 14.08807622 8.71333824 17.57421875 17.12109375 C16.91421875 17.12109375 16.25421875 17.12109375 15.57421875 17.12109375 C15.80238281 17.67796875 16.03054687 18.23484375 16.265625 18.80859375 C18.37885796 24.41861129 19.08876486 28.26484879 17.57421875 34.12109375 C15.78193417 36.51080652 14.49066241 36.96233973 11.58984375 37.46484375 C5.34154698 37.89576077 1.30810457 36.10295698 -3.42578125 32.12109375 C-8.90263694 26.97350794 -13.01906055 21.51938673 -13.59765625 13.83984375 C-13.61108627 11.93278029 -13.52780161 10.02547377 -13.42578125 8.12109375 C-14.41578125 7.79109375 -15.40578125 7.46109375 -16.42578125 7.12109375 C-15.50448262 4.02218017 -14.75420056 2.39321261 -12.23828125 0.30859375 C-7.8345041 -1.55077882 -4.53228934 -1.64213382 0 0 Z " fill="#2E2F32" transform="translate(50.42578125,87.87890625)"/>
<path d="M0 0 C1.59234584 0.24155928 3.18479323 0.48245009 4.77734375 0.72265625 C8.64444302 1.30740478 12.51005594 1.90117893 16.375 2.5 C15.36588542 4.19270833 14.35677083 5.88541667 13.34765625 7.578125 C12.15176439 9.76485438 12.15176439 9.76485438 11.375 13.5 C8.075 14.16 4.775 14.82 1.375 15.5 C1.375 16.16 1.375 16.82 1.375 17.5 C4.675 16.84 7.975 16.18 11.375 15.5 C9.16084534 17.71415466 8.0965569 18.01852775 5.12890625 18.7890625 C4.29166016 19.00820312 3.45441406 19.22734375 2.59179688 19.453125 C1.27791992 19.78570312 1.27791992 19.78570312 -0.0625 20.125 C-0.93455078 20.35445312 -1.80660156 20.58390625 -2.70507812 20.8203125 C-9.20886812 22.5 -9.20886812 22.5 -12.625 22.5 C-12.625 23.16 -12.625 23.82 -12.625 24.5 C-11.93792969 24.27183594 -11.25085938 24.04367188 -10.54296875 23.80859375 C-9.64191406 23.52113281 -8.74085938 23.23367187 -7.8125 22.9375 C-6.91917969 22.64746094 -6.02585938 22.35742188 -5.10546875 22.05859375 C-2.625 21.5 -2.625 21.5 0.375 22.5 C-1.53107285 23.56092734 -3.45032746 24.59820101 -5.375 25.625 C-6.44234375 26.20507812 -7.5096875 26.78515625 -8.609375 27.3828125 C-11.625 28.5 -11.625 28.5 -13.75390625 27.95703125 C-22.19758447 21.38189143 -29.7132294 11.36765591 -35.625 2.5 C-34.52221351 1.63748542 -33.39076834 0.81161384 -32.25 0 C-31.62351562 -0.4640625 -30.99703125 -0.928125 -30.3515625 -1.40625 C-21.28883923 -5.04172639 -9.3538664 -1.45149562 0 0 Z " fill="#1F5C7B" transform="translate(157.625,89.5)"/>
<path d="M0 0 C0 4.62 0 9.24 0 14 C-6.98572451 17.52673306 -13.97395774 21.0483772 -20.96674061 24.56108856 C-24.2135703 26.19233563 -27.45924459 27.82579924 -30.70239258 29.46435547 C-33.83148669 31.04518502 -36.96346474 32.62015595 -40.0975399 34.19108582 C-41.87605777 35.08447041 -43.65152654 35.98391662 -45.42695618 36.88342285 C-46.50785019 37.42398315 -47.5887442 37.96454346 -48.70239258 38.52148438 C-50.13135612 39.24096252 -50.13135612 39.24096252 -51.58918762 39.97497559 C-54 41 -54 41 -57 41 C-57.05437607 39.41705218 -57.09296271 37.83355744 -57.125 36.25 C-57.14820313 35.36828125 -57.17140625 34.4865625 -57.1953125 33.578125 C-56.98131799 30.75339744 -56.5035904 29.38294303 -55 27 C-53.06025696 25.67272949 -53.06025696 25.67272949 -50.66137695 24.49804688 C-49.76316727 24.05078247 -48.86495758 23.60351807 -47.93952942 23.1427002 C-46.96561752 22.67279663 -45.99170563 22.20289307 -44.98828125 21.71875 C-43.98669479 21.22338745 -42.98510834 20.7280249 -41.95317078 20.21765137 C-38.74507369 18.63371396 -35.5291873 17.06640776 -32.3125 15.5 C-29.11541485 13.93023721 -25.9200139 12.35710874 -22.72538757 10.78234863 C-20.7371239 9.80367153 -18.74713814 8.82848293 -16.75520325 7.8572998 C-12.75247971 5.89851035 -8.80105757 3.92803891 -4.95776367 1.66992188 C-2 0 -2 0 0 0 Z " fill="#7D1A14" transform="translate(230,115)"/>
<path d="M0 0 C1.54296875 1.53125 1.54296875 1.53125 3.1875 3.5 C6.53303861 7.46031708 9.99004337 11.29845331 13.49609375 15.1171875 C15 17 15 17 15 19 C18.96 18.505 18.96 18.505 23 18 C23.7517226 20.33869253 24.11971278 21.61691911 23.375 24 C22.73117536 26.13936169 22.73117536 26.13936169 24.4375 28.125 C24.953125 28.74375 25.46875 29.3625 26 30 C26 30.66 26 31.32 26 32 C19.29863602 35.44331596 12.58869958 38.86938154 5.86737442 42.27356148 C2.74670774 43.85478001 -0.37070098 45.44181808 -3.48144531 47.04248047 C-7.05693968 48.88195731 -10.64505282 50.69546382 -14.234375 52.5078125 C-15.35116638 53.08685333 -16.46795776 53.66589417 -17.61859131 54.26248169 C-18.65936829 54.7831723 -19.70014526 55.30386292 -20.77246094 55.84033203 C-21.68735291 56.30666046 -22.60224487 56.77298889 -23.54486084 57.25344849 C-26 58 -26 58 -28.16241455 57.31222534 C-31.1163815 55.20278859 -33.27684114 52.4105306 -35.5625 49.625 C-40.46008493 43.75900475 -45.5372537 38.14150736 -50.8203125 32.62109375 C-52.93631944 30.07657644 -53.86725476 28.06366287 -55 25 C-48.27776935 21.58100818 -41.55018287 18.17276912 -34.81556225 14.77825069 C-31.68870338 13.20176396 -28.56381693 11.62160384 -25.44311523 10.03295898 C-21.85690784 8.20754425 -18.2627596 6.39829714 -14.66796875 4.58984375 C-12.98503975 3.72902443 -12.98503975 3.72902443 -11.26811218 2.85081482 C-10.22725967 2.33019974 -9.18640717 1.80958466 -8.11401367 1.27319336 C-7.19690109 0.80908554 -6.27978851 0.34497772 -5.33488464 -0.13319397 C-3 -1 -3 -1 0 0 Z M-6.65844727 3.7565918 C-7.43338028 4.14086838 -8.20831329 4.52514496 -9.00672913 4.92106628 C-10.2737693 5.55375175 -10.2737693 5.55375175 -11.56640625 6.19921875 C-12.43385971 6.63128128 -13.30131317 7.06334381 -14.1950531 7.50849915 C-16.03917691 8.42802219 -17.88275272 9.34864492 -19.72583008 10.27026367 C-22.52404294 11.66828636 -25.32537612 13.05990582 -28.12695312 14.45117188 C-29.91946753 15.34596024 -31.71179115 16.24113091 -33.50390625 17.13671875 C-34.33443008 17.54838791 -35.16495392 17.96005707 -36.02064514 18.38420105 C-41.20456597 20.98616713 -46.14022794 23.8333382 -51 27 C-46.8506609 32.87823039 -42.24040302 38.11610565 -37.31542969 43.3425293 C-34.38805683 46.45581966 -31.62226913 49.61865297 -29 53 C-24.0276578 51.50829734 -19.58154261 49.39542583 -15 47 C-18.55242882 45.81585706 -19.69830562 46.30464468 -23.1875 47.4375 C-24.08855469 47.72496094 -24.98960937 48.01242188 -25.91796875 48.30859375 C-26.60503906 48.53675781 -27.29210937 48.76492187 -28 49 C-28 48.34 -28 47.68 -28 47 C-27.03513672 46.85304688 -27.03513672 46.85304688 -26.05078125 46.703125 C-18.46916604 45.44853532 -11.29714135 43.38984279 -4 41 C-7.93670488 39.68776504 -10.12488144 40.75703744 -14 42 C-14 41.34 -14 40.68 -14 40 C-13.17822266 39.85304688 -13.17822266 39.85304688 -12.33984375 39.703125 C-0.67787534 37.50346917 10.63324623 34.95173628 21 29 C16.87482343 23.15599986 12.2970682 17.94360563 7.40332031 12.74536133 C4.9103591 10.093042 2.49455166 7.42157179 0.19140625 4.6015625 C-0.53175781 3.74304688 -1.25492188 2.88453125 -2 2 C-3.72761637 2 -5.13159363 2.99741788 -6.65844727 3.7565918 Z " fill="#7E1C16" transform="translate(173,65)"/>
<path d="M0 0 C13.03210613 2.21625721 25.27697221 10.50970464 33 21 C34.0146472 22.17205071 35.03450786 23.33963627 36.0625 24.5 C38 27 38 27 38 29 C27.81970748 29.88709235 21.12475343 27.94916111 12.25 23.0625 C11.17234375 22.49853516 10.0946875 21.93457031 8.984375 21.35351562 C1.30576185 17.30576185 1.30576185 17.30576185 0 16 C-0.07319621 13.30345146 -0.09242537 10.63308542 -0.0625 7.9375 C-0.05798828 7.17888672 -0.05347656 6.42027344 -0.04882812 5.63867188 C-0.0370068 3.75908129 -0.01907078 1.87953101 0 0 Z " fill="#328DBC" transform="translate(92,82)"/>
<path d="M0 0 C6.35214711 3.1263611 10.0486424 6.60539186 13 13 C13.33 13.66 13.66 14.32 14 15 C14.25494037 18.90908572 14.20583444 21.69124834 12 25 C8.78509882 26.60745059 6.5698929 26.40305242 3 26 C-2.57675896 23.09219272 -6.86346508 18.96298446 -9 13 C-9.7921069 9.94547013 -10.24977645 7.15571227 -10 4 C-7.41134904 -0.24538758 -4.77610233 -0.90115138 0 0 Z " fill="#A8AAAF" transform="translate(51,95)"/>
<path d="M0 0 C0 5.28 0 10.56 0 16 C-11.76197375 10.17296713 -23.40604758 4.15406387 -35 -2 C-35 -2.33 -35 -2.66 -35 -3 C-32.1259578 -3.50612064 -29.25097127 -4.00506541 -26.375 -4.5 C-25.56675781 -4.64308594 -24.75851563 -4.78617187 -23.92578125 -4.93359375 C-13.67754195 -6.68329314 -9.07508785 -5.31224655 0 0 Z " fill="#338AB7" transform="translate(88,80)"/>
<path d="M0 0 C0.66 0 1.32 0 2 0 C2.226875 0.763125 2.45375 1.52625 2.6875 2.3125 C4.28096179 5.5753027 5.76338336 6.46260709 9 8 C9.66 8 10.32 8 11 8 C11.69159401 6.15274948 11.69159401 6.15274948 12 4 C11.34 3.01 10.68 2.02 10 1 C14.88925715 2.39693061 17.05441957 4.93987562 20 9 C21.97422872 12.76043567 22.35994598 15.77063479 22 20 C20.6 23.7 20.6 23.7 18 25 C13.9060476 25.39364927 11.5546784 25.28843277 7.875 23.375 C2.90459245 19.26901115 -0.5400311 15.37077338 -2 9 C-2.32551176 4.84972507 -2.35049617 3.52574425 0 0 Z " fill="#898B90" transform="translate(123,136)"/>
<path d="M0 0 C0 1.98 0 3.96 0 6 C-0.96719971 6.4832373 -1.93439941 6.96647461 -2.9309082 7.46435547 C-9.32729226 10.66095833 -15.72295581 13.85893127 -22.11251831 17.06915283 C-24.79602914 18.41721586 -27.48038191 19.76359785 -30.16479492 21.10986328 C-31.5189911 21.78949487 -32.87282962 22.46983955 -34.22631836 23.15087891 C-38.18184736 25.1407304 -42.1456061 27.11228727 -46.11956787 29.06506348 C-47.98020355 29.99015736 -49.82525572 30.94193786 -51.67041016 31.89746094 C-52.80655762 32.4649707 -53.94270508 33.03248047 -55.11328125 33.6171875 C-56.10755127 34.12620605 -57.10182129 34.63522461 -58.1262207 35.15966797 C-61.80540449 36.23551119 -63.60248175 35.68506069 -67 34 C-67.495 32.515 -67.495 32.515 -68 31 C-67.01 29.515 -67.01 29.515 -66 28 C-65.13117188 28.21527344 -64.26234375 28.43054688 -63.3671875 28.65234375 C-59.37507984 29.06452192 -57.68632119 28.34316059 -54.125 26.5625 C-52.98836914 26.00385254 -51.85173828 25.44520508 -50.68066406 24.86962891 C-49.45362646 24.24671383 -48.22674211 23.6234968 -47 23 C-45.72953917 22.36887287 -44.45836723 21.73917539 -43.18652344 21.11083984 C-39.81557021 19.4404782 -36.45466393 17.75083735 -33.09594727 16.05603027 C-28.85583939 13.91967773 -24.60639671 11.80194331 -20.35876465 9.68060303 C-16.99786407 8.00134433 -13.63903204 6.31825133 -10.28515625 4.625 C-9.36050568 4.15929092 -9.36050568 4.15929092 -8.41717529 3.68417358 C-6.74650382 2.84240932 -5.07683092 1.99866401 -3.40722656 1.15478516 C-1 0 -1 0 0 0 Z " fill="#7D1913" transform="translate(234,130)"/>
<path d="M0 0 C1.17175781 0.01353516 1.17175781 0.01353516 2.3671875 0.02734375 C2.94726562 0.03894531 3.52734375 0.05054688 4.125 0.0625 C-1.08274504 4.30106172 -7.3354459 6.88465169 -13.33691406 9.8046875 C-16.10636658 11.17715955 -18.84504468 12.60265234 -21.5859375 14.03125 C-41.22540268 24.0861279 -41.22540268 24.0861279 -51.875 22.0625 C-48.14241581 18.94689219 -43.94277923 16.98239843 -39.6015625 14.8671875 C-38.39951675 14.27781906 -38.39951675 14.27781906 -37.17318726 13.67654419 C-35.48145 12.84903963 -33.78860291 12.02380063 -32.09472656 11.20068359 C-29.51190221 9.94329432 -26.93558128 8.67322626 -24.359375 7.40234375 C-22.71131974 6.5981745 -21.06289412 5.79476373 -19.4140625 4.9921875 C-18.6482486 4.61303192 -17.88243469 4.23387634 -17.09341431 3.8432312 C-11.39859552 1.0982795 -6.35983748 -0.09636117 0 0 Z " fill="#3D92C1" transform="translate(111.875,45.9375)"/>
<path d="M0 0 C0 0.66 0 1.32 0 2 C-1.41666667 2.70833333 -2.83333333 3.41666667 -4.25 4.125 C-5.16096436 4.58052246 -6.07192871 5.03604492 -7.01049805 5.50537109 C-9.01704126 6.50856077 -11.02371621 7.51148699 -13.03051758 8.51416016 C-17.56895274 10.78210687 -22.10665219 13.05131311 -26.63671875 15.3359375 C-34.01971973 19.05519363 -41.43301437 22.66539616 -49 26 C-49 25.01 -49 24.02 -49 23 C-44.545 20.525 -44.545 20.525 -40 18 C-40.9075 18.33 -41.815 18.66 -42.75 19 C-46 20 -46 20 -50 20 C-50 19.34 -50 18.68 -50 18 C-43.07 16.02 -36.14 14.04 -29 12 C-31.31 12.33 -33.62 12.66 -36 13 C-36 12.34 -36 11.68 -36 11 C-35.28457031 10.80889648 -34.56914062 10.61779297 -33.83203125 10.42089844 C-30.5522416 9.53942845 -27.27616901 8.64482877 -24 7.75 C-22.87464844 7.44964844 -21.74929687 7.14929688 -20.58984375 6.83984375 C-14.24038731 5.09467151 -6.28827109 0 0 0 Z " fill="#0E151A" transform="translate(195,94)"/>
<path d="M0 0 C0.66 0 1.32 0 2 0 C2.226875 0.763125 2.45375 1.52625 2.6875 2.3125 C4.28096179 5.5753027 5.76338336 6.46260709 9 8 C9.66 8 10.32 8 11 8 C11.69159401 6.15274948 11.69159401 6.15274948 12 4 C11.34 3.01 10.68 2.02 10 1 C14.88422674 2.39549335 17.13941697 4.86804673 20 9 C20.8125 12.375 20.8125 12.375 21 15 C18.36 14.34 15.72 13.68 13 13 C12.67 14.65 12.34 16.3 12 18 C11.278125 17.195625 10.55625 16.39125 9.8125 15.5625 C6.97484311 12.97707928 5.72833853 12.31957187 2 12 C1.67 13.32 1.34 14.64 1 16 C-1.18392043 11.45016577 -2.58585321 8.15550825 -2 3 C-1.34 2.01 -0.68 1.02 0 0 Z " fill="#A6A8AE" transform="translate(123,136)"/>
<path d="M0 0 C0 1.98 0 3.96 0 6 C-3.93586895 7.98242261 -7.87396589 9.96037832 -11.8125 11.9375 C-12.93205078 12.50146484 -14.05160156 13.06542969 -15.20507812 13.64648438 C-16.27822266 14.18466797 -17.35136719 14.72285156 -18.45703125 15.27734375 C-19.44678955 15.77484131 -20.43654785 16.27233887 -21.45629883 16.78491211 C-24 18 -24 18 -27 19 C-27 16.69 -27 14.38 -27 12 C-26.31373535 11.67201416 -25.6274707 11.34402832 -24.92041016 11.00610352 C-21.82185216 9.52508626 -18.72342449 8.04379654 -15.625 6.5625 C-14.54476562 6.04623047 -13.46453125 5.52996094 -12.3515625 4.99804688 C-10.8046875 4.25844727 -10.8046875 4.25844727 -9.2265625 3.50390625 C-8.27346191 3.04830322 -7.32036133 2.5927002 -6.33837891 2.12329102 C-1.91827864 0 -1.91827864 0 0 0 Z " fill="#1F1D1F" transform="translate(216,128)"/>
<path d="M0 0 C1.9375 1.1875 1.9375 1.1875 3 3 C3.25 5.4375 3.25 5.4375 2 8 C-3.55727383 11.70075094 -9.46556659 12.58511534 -16 13 C-15.58311525 8.13634454 -13.58780535 6.17061868 -10 3 C-9.360625 2.401875 -8.72125 1.80375 -8.0625 1.1875 C-5.20409044 -0.45825096 -3.24129544 -0.4137824 0 0 Z " fill="#0F2F3F" transform="translate(185,89)"/>
<path d="M0 0 C3.34252724 -0.07427838 5.8035914 -0.06546953 9 1 C9.17754126 4.90590763 9.20731737 7.68902394 7 11 C3.90826248 12.54586876 1.40570448 12.29359521 -2 12 C-4.5 10.3125 -4.5 10.3125 -6 8 C-5.75 5.25 -5.75 5.25 -5 3 C-3 3 -1 3 1 3 C0.67 2.01 0.34 1.02 0 0 Z " fill="#3E4245" transform="translate(56,109)"/>
<path d="M0 0 C0.680625 0.94875 1.36125 1.8975 2.0625 2.875 C2.825625 3.803125 3.58875 4.73125 4.375 5.6875 C4.931875 6.409375 5.48875 7.13125 6.0625 7.875 C5.0725 8.37 5.0725 8.37 4.0625 8.875 C2.41278516 8.16797935 0.76593953 7.45284562 -0.859375 6.69140625 C-3.83148054 5.52379336 -6.86449462 5.11888024 -10.01953125 4.6953125 C-11.9375 3.875 -11.9375 3.875 -13.19921875 1.3046875 C-13.44285156 0.50289063 -13.68648438 -0.29890625 -13.9375 -1.125 C-3.98795321 -2.88490232 -3.98795321 -2.88490232 0 0 Z " fill="#782A2B" transform="translate(132.9375,112.125)"/>
<path d="M0 0 C0.33 2.31 0.66 4.62 1 7 C-0.45537568 7.83848804 -1.91440373 8.67063934 -3.375 9.5 C-4.18710938 9.9640625 -4.99921875 10.428125 -5.8359375 10.90625 C-8 12 -8 12 -10 12 C-10 9.03 -10 6.06 -10 3 C-6.27034861 0.96564469 -4.33094958 0 0 0 Z " fill="#969190" transform="translate(183,143)"/>
<path d="M0 0 C2.475 0.495 2.475 0.495 5 1 C4.67 1.66 4.34 2.32 4 3 C3.77049681 5.204364 3.58924067 7.41392173 3.4375 9.625 C3.35371094 10.81351563 3.26992187 12.00203125 3.18359375 13.2265625 C3.12300781 14.14179687 3.06242187 15.05703125 3 16 C4.25683594 16.38285156 4.25683594 16.38285156 5.5390625 16.7734375 C9.33207838 18.11768918 12.80224791 19.79014193 16.375 21.625 C17.01566406 21.94984375 17.65632813 22.2746875 18.31640625 22.609375 C19.87947501 23.40257407 21.44000622 24.20077031 23 25 C23 25.66 23 26.32 23 27 C17.6462535 25.44347945 12.99849053 23.0182491 8.125 20.375 C7.34125 19.95476562 6.5575 19.53453125 5.75 19.1015625 C3.83107943 18.0718978 1.91522397 17.03652433 0 16 C0 10.72 0 5.44 0 0 Z " fill="#397499" transform="translate(92,82)"/>
<path d="M0 0 C-3.60892336 1.86627995 -7.23926282 3.68658697 -10.875 5.5 C-12.39480469 6.28697266 -12.39480469 6.28697266 -13.9453125 7.08984375 C-20.53316026 10.34153784 -25.64859476 11.80708524 -33 11 C-28.02195122 6.84901111 -21.98783172 5.32234485 -15.9375 3.25 C-14.74060547 2.82589844 -13.54371094 2.40179688 -12.31054688 1.96484375 C-10.59254883 1.37123047 -10.59254883 1.37123047 -8.83984375 0.765625 C-7.79175537 0.40243164 -6.74366699 0.03923828 -5.66381836 -0.33496094 C-3 -1 -3 -1 0 0 Z " fill="#7EBDDC" transform="translate(98,56)"/>
<path d="M0 0 C0 0.66 0 1.32 0 2 C1.65 1.67 3.3 1.34 5 1 C1.18387615 4.25191199 -3.23299891 6.11627147 -7.75 8.1875 C-8.54277344 8.55552734 -9.33554688 8.92355469 -10.15234375 9.30273438 C-12.09963272 10.20599492 -14.04955989 11.1035641 -16 12 C-16 11.01 -16 10.02 -16 9 C-13.03 7.35 -10.06 5.7 -7 4 C-7.9075 4.33 -8.815 4.66 -9.75 5 C-13 6 -13 6 -17 6 C-17 5.34 -17 4.68 -17 4 C-14.73050898 3.32844651 -12.4596039 2.6626037 -10.1875 2 C-8.92292969 1.62875 -7.65835938 1.2575 -6.35546875 0.875 C-3 0 -3 0 0 0 Z " fill="#1C2328" transform="translate(162,108)"/>
<path d="M0 0 C0 2.97 0 5.94 0 9 C-6.75 13 -6.75 13 -9 13 C-9.3125 9.8125 -9.3125 9.8125 -9 6 C-4.04347826 0 -4.04347826 0 0 0 Z " fill="#817E7E" transform="translate(230,118)"/>
<path d="M0 0 C0.70125 0.268125 1.4025 0.53625 2.125 0.8125 C2.455 2.4625 2.785 4.1125 3.125 5.8125 C-5.30357143 9.24107143 -5.30357143 9.24107143 -9.875 8.8125 C-9.62431852 5.42830001 -8.56957439 4.5001329 -6.125 2 C-2.875 -0.1875 -2.875 -0.1875 0 0 Z " fill="#1D5977" transform="translate(182.875,92.1875)"/>
<path d="M0 0 C2.6875 -0.3125 2.6875 -0.3125 6 0 C8.875 2.5 8.875 2.5 11 5 C10.34 6.65 9.68 8.3 9 10 C5.57569106 8.76344399 2.59887381 7.59887381 0 5 C-0.25 2.3125 -0.25 2.3125 0 0 Z " fill="#43474A" transform="translate(125,135)"/>
<path d="M0 0 C7.50769231 -0.36923077 7.50769231 -0.36923077 10 1.5 C10.495 2.2425 10.495 2.2425 11 3 C10.34 4.65 9.68 6.3 9 8 C5.81390075 7.64598897 4.20933322 7.16972964 1.6875 5.125 C0 3 0 3 0 0 Z " fill="#383C3F" transform="translate(45,97)"/>
<path d="M0 0 C3.34252724 -0.07427838 5.8035914 -0.06546953 9 1 C9.1875 3.8125 9.1875 3.8125 9 7 C7.48828125 8.69921875 7.48828125 8.69921875 6 10 C4.99421411 8.71283353 3.99553202 7.42011342 3 6.125 C2.443125 5.40570313 1.88625 4.68640625 1.3125 3.9453125 C0 2 0 2 0 0 Z " fill="#575A5E" transform="translate(56,109)"/>
<path d="M0 0 C0 0.66 0 1.32 0 2 C-4.62 3.65 -9.24 5.3 -14 7 C-11.03 7.495 -11.03 7.495 -8 8 C-8 8.33 -8 8.66 -8 9 C-12.29 9 -16.58 9 -21 9 C-17.42932875 6.32199656 -13.8949585 4.24722204 -9.9375 2.25 C-9.31294922 1.92128906 -8.68839844 1.59257813 -8.04492188 1.25390625 C-3.35529819 -1.11843273 -3.35529819 -1.11843273 0 0 Z " fill="#5793BA" transform="translate(81,59)"/>
<path d="M0 0 C0.66 0.66 1.32 1.32 2 2 C-1.05263664 2.98120464 -2.94736336 2.98120464 -6 2 C-5.54625 2.7425 -5.0925 3.485 -4.625 4.25 C-3.31359204 6.46930578 -2.11719197 8.67967822 -1 11 C-1.763125 10.360625 -2.52625 9.72125 -3.3125 9.0625 C-5.88246713 6.85767219 -5.88246713 6.85767219 -9 6 C-9.33 7.32 -9.66 8.64 -10 10 C-10.32152515 6.46322336 -10.4131192 4.6037896 -8.375 1.625 C-5.35164037 -0.44361448 -3.59411792 -0.46879799 0 0 Z " fill="#93959A" transform="translate(51,95)"/>
<path d="M0 0 C2.475 0.99 2.475 0.99 5 2 C5 4.64 5 7.28 5 10 C2.525 9.01 2.525 9.01 0 8 C0 5.36 0 2.72 0 0 Z " fill="#811913" transform="translate(28,85)"/>
<path d="M0 0 C0.66 0 1.32 0 2 0 C2.226875 0.7425 2.45375 1.485 2.6875 2.25 C4.24407532 5.51139591 6.08518854 6.92894975 9 9 C5.04179141 8.43454163 2.3340947 7.19097652 -1 5 C-1.33 6.32 -1.66 7.64 -2 9 C-2.25 3.375 -2.25 3.375 0 0 Z " fill="#92959A" transform="translate(123,136)"/>
<path d="M0 0 C0.2878026 3.05070757 0.44198649 5.95999538 0 9 C-2.83244597 11.52623559 -4.21564776 12 -8 12 C-8 11.34 -8 10.68 -8 10 C-6.02 9.01 -4.04 8.02 -2 7 C-2 6.01 -2 5.02 -2 4 C-2.66 3.67 -3.32 3.34 -4 3 C-4 2.34 -4 1.68 -4 1 C-2 0 -2 0 0 0 Z " fill="#A29393" transform="translate(230,118)"/>
<path d="M0 0 C3.34249629 0.59687434 5.46436342 1.73603877 8 4 C8 4.66 8 5.32 8 6 C5.125 6.125 5.125 6.125 2 6 C1.34 5.34 0.68 4.68 0 4 C0 2.68 0 1.36 0 0 Z " fill="#35393C" transform="translate(122,141)"/>
<path d="M0 0 C2.89932357 2.39509338 3.50168276 4.31245243 4 8 C2.35 7.67 0.7 7.34 -1 7 C-1.625 5.1875 -1.625 5.1875 -2 3 C-1.34 2.01 -0.68 1.02 0 0 Z " fill="#2F3336" transform="translate(132,151)"/>
<path d="M0 0 C2.875 -0.1875 2.875 -0.1875 6 0 C8 3 8 3 8 6 C4.65750371 5.40312566 2.53563658 4.26396123 0 2 C0 1.34 0 0.68 0 0 Z " fill="#35393C" transform="translate(136,149)"/>
<path d="M0 0 C1.9375 0.75 1.9375 0.75 4 2 C4.75 4.125 4.75 4.125 5 6 C3.02 6 1.04 6 -1 6 C-1.33 5.01 -1.66 4.02 -2 3 C-1.34 2.01 -0.68 1.02 0 0 Z " fill="#303437" transform="translate(137,142)"/>
<path d="M0 0 C1.9375 0.75 1.9375 0.75 4 2 C4.75 4.125 4.75 4.125 5 6 C3.02 6 1.04 6 -1 6 C-1.33 5.01 -1.66 4.02 -2 3 C-1.34 2.01 -0.68 1.02 0 0 Z " fill="#303438" transform="translate(57,102)"/>
<path d="M0 0 C3.25543229 0.34879632 4.01873107 1.02133261 6.25 3.5625 C6.8275 4.366875 7.405 5.17125 8 6 C5.125 6.125 5.125 6.125 2 6 C1.34 5.34 0.68 4.68 0 4 C0 2.68 0 1.36 0 0 Z " fill="#34373B" transform="translate(42,101)"/>
<path d="M0 0 C1.875 0.25 1.875 0.25 4 1 C5.25 3.0625 5.25 3.0625 6 5 C5.01 6.485 5.01 6.485 4 8 C3.34 8 2.68 8 2 8 C0.74335022 5.09399739 0 3.20395416 0 0 Z " fill="#2F3336" transform="translate(50,97)"/>
<path d="M0 0 C-1.95585325 1.00484204 -3.91476237 2.00373805 -5.875 3 C-6.96554688 3.556875 -8.05609375 4.11375 -9.1796875 4.6875 C-12 6 -12 6 -14 6 C-14 5.01 -14 4.02 -14 3 C-12.23358317 2.3012307 -10.46167336 1.61633417 -8.6875 0.9375 C-7.20830078 0.36322266 -7.20830078 0.36322266 -5.69921875 -0.22265625 C-3 -1 -3 -1 0 0 Z " fill="#7CA6C4" transform="translate(98,56)"/>
<path d="M0 0 C0.66 0.33 1.32 0.66 2 1 C2.73075648 3.3140622 3.40138258 5.64828869 4 8 C2.35 7.67 0.7 7.34 -1 7 C-1.625 5.1875 -1.625 5.1875 -2 3 C-1.34 2.01 -0.68 1.02 0 0 Z " fill="#2E3235" transform="translate(52,111)"/>
<path d="M0 0 C1.65 0 3.3 0 5 0 C5.33 0.99 5.66 1.98 6 3 C5.01 4.485 5.01 4.485 4 6 C2.68 5.34 1.36 4.68 0 4 C0 2.68 0 1.36 0 0 Z " fill="#2E3235" transform="translate(125,148)"/>
<path d="M0 0 C-2.60319113 1.73546076 -4.52267237 2.65175233 -7.4375 3.625 C-8.19933594 3.88539062 -8.96117187 4.14578125 -9.74609375 4.4140625 C-12 5 -12 5 -16 5 C-16 4.34 -16 3.68 -16 3 C-14.27318563 2.49193553 -12.54342021 1.99389533 -10.8125 1.5 C-9.84957031 1.2215625 -8.88664063 0.943125 -7.89453125 0.65625 C-5.14654124 0.03322392 -2.80401584 -0.12302812 0 0 Z " fill="#051117" transform="translate(161,109)"/>
<path d="M0 0 C1.65 0 3.3 0 5 0 C5.33 0.99 5.66 1.98 6 3 C5.01 4.485 5.01 4.485 4 6 C2.68 5.34 1.36 4.68 0 4 C0 2.68 0 1.36 0 0 Z " fill="#2E3235" transform="translate(45,108)"/>
<path d="M0 0 C0 0.66 0 1.32 0 2 C-5.445 4.475 -5.445 4.475 -11 7 C-11 6.01 -11 5.02 -11 4 C-9.73308493 3.32591692 -8.46129251 2.66099503 -7.1875 2 C-6.47980469 1.62875 -5.77210938 1.2575 -5.04296875 0.875 C-3 0 -3 0 0 0 Z " fill="#1C2125" transform="translate(195,94)"/>
<path d="M0 0 C4.6875 3.61328125 4.6875 3.61328125 6 5 C6 5.99 6 6.98 6 8 C4.68 8 3.36 8 2 8 C0.74335022 5.09399739 0 3.20395416 0 0 Z " fill="#303437" transform="translate(135,151)"/>
<path d="M0 0 C0.33 0 0.66 0 1 0 C1 1.65 1 3.3 1 5 C2.98 5 4.96 5 7 5 C4.59660228 7.76390737 3.83736322 8.04065919 0 9 C0 6.03 0 3.06 0 0 Z " fill="#A39283" transform="translate(173,146)"/>
<path d="M0 0 C3.37503669 1.1858237 5.64722731 2.27573689 8 5 C7.67 5.66 7.34 6.32 7 7 C6.01 6.67 5.02 6.34 4 6 C3.34 6.66 2.68 7.32 2 8 C2.04125 7.236875 2.0825 6.47375 2.125 5.6875 C2.22080824 2.77281584 2.22080824 2.77281584 0 0 Z " fill="#94969B" transform="translate(133,137)"/>
<path d="M0 0 C3.37503669 1.1858237 5.64722731 2.27573689 8 5 C7.67 5.66 7.34 6.32 7 7 C6.01 6.67 5.02 6.34 4 6 C3.34 6.66 2.68 7.32 2 8 C2.04125 7.236875 2.0825 6.47375 2.125 5.6875 C2.22080824 2.77281584 2.22080824 2.77281584 0 0 Z " fill="#96999E" transform="translate(53,97)"/>
<path d="M0 0 C0.66 0.33 1.32 0.66 2 1 C1.34 2.32 0.68 3.64 0 5 C-0.66 5 -1.32 5 -2 5 C-1.67 5.99 -1.34 6.98 -1 8 C-1.66 8 -2.32 8 -3 8 C-3 5.69 -3 3.38 -3 1 C-2.01 0.67 -1.02 0.34 0 0 Z " fill="#716262" transform="translate(224,123)"/>
<path d="M0 0 C0.66 0.33 1.32 0.66 2 1 C1.67 2.98 1.34 4.96 1 7 C-1.62187494 5.95125002 -2.79371361 5.35068687 -4.25 2.875 C-4.4975 2.25625 -4.745 1.6375 -5 1 C-3.68 1.33 -2.36 1.66 -1 2 C-0.67 1.34 -0.34 0.68 0 0 Z " fill="#8B8D92" transform="translate(50,111)"/>
<path d="M0 0 C0.99 0 1.98 0 3 0 C3 2.31 3 4.62 3 7 C2.01 6.67 1.02 6.34 0 6 C0 4.02 0 2.04 0 0 Z " fill="#EB8303" transform="translate(29,72)"/>
<path d="M0 0 C-6.75 3 -6.75 3 -9 3 C-9 2.34 -9 1.68 -9 1 C-5.57367167 -0.61798838 -3.61944899 -1.34053666 0 0 Z " fill="#06090B" transform="translate(171,107)"/>
<path d="M0 0 C2.64 0.66 5.28 1.32 8 2 C8 2.33 8 2.66 8 3 C6.35 3 4.7 3 3 3 C2.67 4.32 2.34 5.64 2 7 C0.5393715 4.35261084 0 3.10551666 0 0 Z " fill="#9D9FA4" transform="translate(42,105)"/>
<path d="M0 0 C1.65 0 3.3 0 5 0 C5 0.99 5 1.98 5 3 C3.35 3.33 1.7 3.66 0 4 C0 2.68 0 1.36 0 0 Z " fill="#656667" transform="translate(177,146)"/>
<path d="M0 0 C0.33 1.32 0.66 2.64 1 4 C2.65 3.67 4.3 3.34 6 3 C6.33 3.66 6.66 4.32 7 5 C3.37673261 6.2077558 2.35853631 5.54311128 -1 4 C-0.67 2.68 -0.34 1.36 0 0 Z " fill="#837E7E" transform="translate(176,146)"/>
<path d="M0 0 C1.65 1.32 3.3 2.64 5 4 C-1.52307692 4.36923077 -1.52307692 4.36923077 -3.9375 2.5 C-4.4634375 1.7575 -4.4634375 1.7575 -5 1 C-2.525 1.495 -2.525 1.495 0 2 C0 1.34 0 0.68 0 0 Z " fill="#96989D" transform="translate(56,117)"/>
</svg>
